#define tkg2canvas.xbm_width 51
#define tkg2canvas.xbm_height 51
static unsigned char tkg2canvas.xbm_bits[] = {
   0x00, 0x00, 0x00, 0x00, 0x00, 0x00, 0x00, 0xfe, 0xff, 0xff, 0xff, 0xff,
   0xff, 0x01, 0x8a, 0x88, 0x88, 0x88, 0x88, 0x88, 0x01, 0x8e, 0x88, 0x88,
   0x88, 0x88, 0xc8, 0x01, 0x82, 0x00, 0x08, 0x80, 0x00, 0x08, 0x01, 0x82,
   0x00, 0x08, 0x80, 0x00, 0x08, 0x01, 0x02, 0x00, 0x00, 0x00, 0x00, 0x00,
   0x01, 0x3e, 0x00, 0x00, 0x00, 0x00, 0xf0, 0x01, 0x02, 0xfe, 0x00, 0x00,
   0x00, 0x00, 0x01, 0x02, 0x10, 0x02, 0x70, 0x00, 0x00, 0x01, 0x02, 0x10,
   0x02, 0x88, 0x00, 0x00, 0x01, 0x0e, 0x10, 0x12, 0x80, 0x00, 0xc0, 0x01,
   0x02, 0x10, 0x8a, 0x61, 0x00, 0x00, 0x01, 0x02, 0x10, 0x46, 0x12, 0x00,
   0x00, 0x01, 0x02, 0x10, 0x4a, 0x0a, 0x60, 0x00, 0x01, 0x0e, 0x10, 0x92,
   0xfb, 0x90, 0xc0, 0x01, 0x02, 0x00, 0x00, 0x02, 0x90, 0x00, 0x01, 0x02,
   0x00, 0x40, 0x02, 0x60, 0x00, 0x01, 0x02, 0x00, 0x80, 0x01, 0x00, 0x00,
   0x01, 0x3e, 0x00, 0x00, 0x00, 0x00, 0xf0, 0x01, 0x02, 0x00, 0x00, 0x00,
   0x00, 0x00, 0x01, 0x02, 0x00, 0x00, 0x00, 0x00, 0x00, 0x01, 0x02, 0x3c,
   0x00, 0x00, 0x00, 0x03, 0x01, 0x0e, 0x42, 0x02, 0x00, 0x80, 0xc7, 0x01,
   0x02, 0x81, 0x02, 0x00, 0x84, 0x07, 0x01, 0x02, 0x01, 0x02, 0x00, 0x04,
   0x03, 0x01, 0x02, 0x01, 0x82, 0xd1, 0x1f, 0x00, 0x01, 0x0e, 0x01, 0x5e,
   0x32, 0x04, 0xc0, 0x01, 0x02, 0x81, 0x52, 0x12, 0x04, 0x00, 0x01, 0x02,
   0x42, 0x52, 0x12, 0x04, 0x00, 0x01, 0x02, 0x3c, 0x92, 0x15, 0x04, 0x00,
   0x01, 0x3e, 0x00, 0x00, 0x00, 0x00, 0xf0, 0x01, 0x02, 0x00, 0x00, 0x06,
   0x80, 0x01, 0x01, 0x02, 0x00, 0x00, 0x09, 0x40, 0x02, 0x01, 0x02, 0x00,
   0x00, 0x09, 0x40, 0x02, 0x01, 0x0e, 0x03, 0x00, 0x06, 0x80, 0xc1, 0x01,
   0x82, 0x04, 0x06, 0x00, 0x00, 0x00, 0x01, 0x82, 0x04, 0x0f, 0x00, 0x06,
   0x00, 0x01, 0x02, 0x03, 0x0f, 0x00, 0x0f, 0x00, 0x01, 0x0e, 0x00, 0x06,
   0x00, 0x0f, 0xc0, 0x01, 0x02, 0x18, 0x00, 0x03, 0x06, 0x00, 0x01, 0x02,
   0x24, 0x80, 0x07, 0x00, 0x00, 0x01, 0x02, 0x24, 0x80, 0x07, 0x00, 0x00,
   0x01, 0x3e, 0x18, 0x00, 0x03, 0x00, 0xf0, 0x01, 0x82, 0x00, 0x08, 0x00,
   0x00, 0x08, 0x01, 0x82, 0x00, 0x08, 0x00, 0x00, 0x08, 0x01, 0x8a, 0x88,
   0x88, 0x88, 0x88, 0x88, 0x01, 0x8e, 0x88, 0x88, 0x88, 0x88, 0x88, 0x01,
   0xfe, 0xff, 0xff, 0xff, 0xff, 0xff, 0x01, 0x00, 0x00, 0x00, 0x00, 0x00,
   0x00, 0x00, 0x00, 0x00, 0x00, 0x00, 0x00, 0x00, 0x00};
